# xmcd
#
# Track frame offsets:
#	150
#	11366
#	23011
#	31312
#	44550
#	55391
#	66569
#	77026
#	87954
#	98860
#	108059
#	119644
#	128554
#	140555
#	150197
#	162887
#	173554
#	184481
#	195495
#	207849
#	218982
#	229248
#	238786
#	249230
#
# Disc length: 3451 seconds
#
# Revision: 1
# Processed by: cddbd v1.5.2PL0 Copyright (c) Steve Scherf et al.
# Submitted via: audiograbber 1.83.01
#
DISCID=430d7918
DTITLE=Various Artist - Pied Piper Productions Presents the Detroit Sound  Volume 1
DYEAR=2013
DGENRE=Soul
TTITLE0=Lorraine Chandler - I Can't Hold On (original version)
TTITLE1=September Jones - Stuttering Sam
TTITLE2=Nancy Wilcox - Gamblers Blues
TTITLE3=Rose Batiste - This Heart Is Lonely
TTITLE4=Hesitations - She Won't Come Back
TTITLE5=Tony Hester - Just Can't Leave You
TTITLE6=Cavaliers - We Go Together
TTITLE7=Freddy Butler - That's When I Need You
TTITLE8=September Jones - Give Me All Your Love
TTITLE9=Pied Piper Players - That's What Love Is
TTITLE10=Willie Kendrick - Time Changes Things
TTITLE11=Freddy Butler - I Fell In Love (Can't Help It)
TTITLE12=Mikki Farrow - Could It Be
TTITLE13=Lorraine Chandler - I Hear Music
TTITLE14=September Jones - I'm Comin' Home
TTITLE15=Lorraine Chandler - Mend The Torn Pieces Of My Heart (original version
TTITLE15=)
TTITLE16=Pied Piper Players - He'll Be Leaving You
TTITLE17=September Jones - Chink A Chank Baby
TTITLE18=Hesitations - I'm Not Built That Way
TTITLE19=Sam E Solo - Tears Keep Falling
TTITLE20=Lorraine Chandler - Tell Me Your Mine
TTITLE21=Nancy Wilcox - In The End
TTITLE22=Mike and Ray - If Only You Knew
TTITLE23=Sandpipers - Lonely Too Long
EXTD=
EXTT0=
EXTT1=
EXTT2=
EXTT3=
EXTT4=
EXTT5=
EXTT6=
EXTT7=
EXTT8=
EXTT9=
EXTT10=
EXTT11=
EXTT12=
EXTT13=
EXTT14=
EXTT15=
EXTT16=
EXTT17=
EXTT18=
EXTT19=
EXTT20=
EXTT21=
EXTT22=
EXTT23=
PLAYORDER=
